<svg id="Layer_1" data-name="Layer 1" xmlns="http://www.w3.org/2000/svg" viewBox="0 0 999.33 253.14"><defs><style>.cls-1{fill:#193864;}.cls-2{fill:#00cdbe;}.cls-3{fill:#fff;}</style></defs><title>MarketFinance_Long_TealWhite_Digital RGB</title><path class="cls-1" d="M96.31,203.24l.06.11a1.28,1.28,0,0,0-.11-.2Z" transform="translate(0 0)"/><path class="cls-2" d="M19.39,253.14a19.39,19.39,0,0,0,19.39-19.39V96.33L96.21,203.05a19.37,19.37,0,0,1,.1-18.18l3.87-7.18L23.27,34.78v199a3.88,3.88,0,0,1-7.76,0V19.39a3.88,3.88,0,0,1,7.29-1.84l81.78,152,8.81-16.37L36.46,10.2A19.39,19.39,0,0,0,0,19.39V233.75A19.39,19.39,0,0,0,19.39,253.14Z" transform="translate(0 0)"/><path class="cls-2" d="M329.24,84.27H313.92c-1.91,0-3.11,1.56-3.47,3.35l-11.36,51.69L287.72,87.62c-.36-1.79-1.55-3.35-3.47-3.35H268.94a3.45,3.45,0,0,0-3.47,3.35v78.13a3.44,3.44,0,0,0,3.47,3.35h6.46a3.45,3.45,0,0,0,3.47-3.35V101.62l14.59,64.13c.36,1.8,1.56,3.35,3.47,3.35h4.31c1.91,0,3.11-1.55,3.47-3.35l14.6-64.13v64.13a3.44,3.44,0,0,0,3.47,3.35h6.46a3.45,3.45,0,0,0,3.47-3.35V87.62A3.46,3.46,0,0,0,329.24,84.27Z" transform="translate(0 0)"/><path class="cls-2" d="M379.72,86.43A2.73,2.73,0,0,0,377,84.27h-16a2.73,2.73,0,0,0-2.75,2.16l-18.07,78.12a14.28,14.28,0,0,0-.36,2,2.55,2.55,0,0,0,2.63,2.51h8.86c1.43,0,2.27-1.19,2.63-2.63l3.59-15.08h23L384,166.47c.36,1.44,1.2,2.63,2.63,2.63h8.86a2.55,2.55,0,0,0,2.63-2.51,14.28,14.28,0,0,0-.36-2ZM360.22,139,369,99.23,377.69,139Z" transform="translate(0 0)"/><path class="cls-2" d="M442.17,126.39c7.78-.84,10.29-6.94,10.29-14.6v-12c0-8.26-6-15.56-15.19-15.56h-29.2a3.46,3.46,0,0,0-3.47,3.35v78.13a3.45,3.45,0,0,0,3.47,3.35h7.78a3.45,3.45,0,0,0,3.47-3.35v-33H431c4.79,0,8.26,3.11,8.26,7.9v25.12a3.45,3.45,0,0,0,3.47,3.35h7.78a3.45,3.45,0,0,0,3.47-3.35V143C454,135,451.74,127.35,442.17,126.39Zm-3.23-13.76c0,4.78-3.11,7.9-7.9,7.9H419.32v-24H431c4.79,0,7.9,3.11,7.9,7.77Z" transform="translate(0 0)"/><path class="cls-2" d="M492.18,122.68l18.07-33.86a6.4,6.4,0,0,0,.71-2.51c0-1.8-1.79-2-3.59-2h-8.13c-1.92,0-2.75,1.56-3.71,3.35l-17.59,31.71V87.62a3.45,3.45,0,0,0-3.47-3.35h-7.78a3.46,3.46,0,0,0-3.47,3.35v78.13a3.45,3.45,0,0,0,3.47,3.35h7.78a3.44,3.44,0,0,0,3.47-3.35V127.82l19.38,37.81c.84,1.68,2.28,3.47,4.07,3.47h8.86c2.15,0,3.47-1.08,3.47-2.75a3.82,3.82,0,0,0-.36-1.91Z" transform="translate(0 0)"/><path class="cls-2" d="M560.49,156.42h-26.2V130.7h22a3.45,3.45,0,0,0,3.35-3.47V121.6a3.45,3.45,0,0,0-3.35-3.47h-22V97h25.6a3.45,3.45,0,0,0,3.35-3.47V87.74a3.45,3.45,0,0,0-3.35-3.47H523a3.46,3.46,0,0,0-3.47,3.35v78.13A3.45,3.45,0,0,0,523,169.1h37.45a3.44,3.44,0,0,0,3.35-3.47v-5.74A3.44,3.44,0,0,0,560.49,156.42Z" transform="translate(0 0)"/><path class="cls-2" d="M616.24,84.27h-42a3.45,3.45,0,0,0-3.35,3.47v5.63a3.45,3.45,0,0,0,3.35,3.47h13.64v68.91a3.44,3.44,0,0,0,3.47,3.35h7.77a3.44,3.44,0,0,0,3.47-3.35V96.84h13.64a3.45,3.45,0,0,0,3.35-3.47V87.74A3.45,3.45,0,0,0,616.24,84.27Z" transform="translate(0 0)"/><path class="cls-3" d="M226.77,233.75V19.39a19.39,19.39,0,0,0-36.46-9.19l-94,174.67a19.39,19.39,0,1,0,34.15,18.37L188,96.33V233.75a19.39,19.39,0,0,0,38.78,0Zm-23.26,0v-199L116.8,195.89a3.88,3.88,0,1,1-6.83-3.67L204,17.55a3.88,3.88,0,0,1,7.29,1.84V233.75a3.88,3.88,0,1,1-7.75,0Z" transform="translate(0 0)"/><path class="cls-3" d="M644.34,165.6a3.47,3.47,0,0,1-3.37,3.49h-8a3.47,3.47,0,0,1-3.49-3.37V87.06A3.46,3.46,0,0,1,633,83.69h37.1a3.47,3.47,0,0,1,3.37,3.49V93a3.48,3.48,0,0,1-3.37,3.5H644.34v21.32H666.5a3.47,3.47,0,0,1,3.38,3.49v5.66a3.47,3.47,0,0,1-3.38,3.49H644.34Z" transform="translate(0 0)"/><path class="cls-3" d="M680.6,87.06a3.46,3.46,0,0,1,3.49-3.37h7.83a3.46,3.46,0,0,1,3.49,3.37v78.66a3.47,3.47,0,0,1-3.49,3.37h-7.83a3.47,3.47,0,0,1-3.49-3.37Z" transform="translate(0 0)"/><path class="cls-3" d="M746.49,87.18A3.46,3.46,0,0,1,750,83.81h7.83a3.46,3.46,0,0,1,3.49,3.37v78.54a3.47,3.47,0,0,1-3.49,3.37h-9.88c-2.41,0-3.13-1.69-3.85-3.37l-23.49-53.36v53.36a3.48,3.48,0,0,1-3.49,3.37h-7.83a3.48,3.48,0,0,1-3.5-3.37V87.06a3.47,3.47,0,0,1,3.5-3.37h9.87c2.41,0,3.14,1.68,3.86,3.37l23.49,53.36Z" transform="translate(0 0)"/><path class="cls-3" d="M804.67,83.69a2.75,2.75,0,0,1,2.77,2.17l18.19,78.65a14.56,14.56,0,0,1,.36,2.05,2.58,2.58,0,0,1-2.65,2.53h-8.91c-1.45,0-2.29-1.21-2.65-2.65l-3.62-15.18H785l-3.61,15.18c-.36,1.44-1.2,2.65-2.65,2.65h-8.91a2.57,2.57,0,0,1-2.65-2.53,14.56,14.56,0,0,1,.36-2.05l18.19-78.65a2.74,2.74,0,0,1,2.77-2.17Zm-8.07,15-8.79,40h17.58Z" transform="translate(0 0)"/><path class="cls-3" d="M872.61,87.18a3.46,3.46,0,0,1,3.49-3.37h7.83a3.46,3.46,0,0,1,3.49,3.37v78.54a3.47,3.47,0,0,1-3.49,3.37h-9.88c-2.41,0-3.13-1.69-3.85-3.37l-23.49-53.36v53.36a3.48,3.48,0,0,1-3.49,3.37h-7.83a3.48,3.48,0,0,1-3.5-3.37V87.06a3.47,3.47,0,0,1,3.5-3.37h9.87c2.41,0,3.14,1.68,3.86,3.37l23.49,53.36Z" transform="translate(0 0)"/><path class="cls-3" d="M931.63,104.53c0-6.27-4-10.72-10.12-10.72s-10.11,4.57-10.11,10.72V148c0,6.26,4,10.72,10.11,10.72s10.12-4.58,10.12-10.72v-2a3.48,3.48,0,0,1,3.5-3.37h7.7a3.48,3.48,0,0,1,3.5,3.37v2c0,15.06-11,23.49-24.82,23.49S896.7,163.07,896.7,148V104.53c0-15.06,11-23.49,24.81-23.49s24.82,8.43,24.82,23.49v2a3.48,3.48,0,0,1-3.5,3.38h-7.7a3.48,3.48,0,0,1-3.5-3.38Z" transform="translate(0 0)"/><path class="cls-3" d="M958.26,169.09a3.48,3.48,0,0,1-3.5-3.37V87.06a3.47,3.47,0,0,1,3.5-3.37h37.09a3.47,3.47,0,0,1,3.38,3.49V93a3.48,3.48,0,0,1-3.38,3.5H969.58v21.32h22.16a3.46,3.46,0,0,1,3.37,3.49v5.66a3.46,3.46,0,0,1-3.37,3.49H969.58v25.9H996a3.48,3.48,0,0,1,3.37,3.49v5.79a3.48,3.48,0,0,1-3.37,3.49Z" transform="translate(0 0)"/></svg>